<svg version="1.1" viewBox="0.0 0.0 2452.6561679790025 320.70603674540683" fill="none" stroke="none" stroke-linecap="square" stroke-miterlimit="10" xmlns:xlink="http://www.w3.org/1999/xlink" xmlns="http://www.w3.org/2000/svg"><clipPath id="p.0"><path d="m0 0l2452.6562 0l0 320.70602l-2452.6562 0l0 -320.70602z" clip-rule="nonzero"/></clipPath><g clip-path="url(#p.0)"><path fill="#000000" fill-opacity="0.0" d="m0 0l2452.6562 0l0 320.70602l-2452.6562 0z" fill-rule="evenodd"/><path fill="#b4a7d6" d="m266.36783 34.447243l-41.8889 1.0089073l-56.378815 252.15646l41.8889 -1.0089111z" fill-rule="evenodd"/><path fill="#b4a7d6" d="m13.922065 287.42615l0 -252.22049l151.90552 252.22049z" fill-rule="evenodd"/><path fill="#8e7cc3" d="m13.735463 33.282383l0 0c83.18517 0 150.64978 33.20722 150.75578 74.20453c0.10600281 40.997322 -67.18666 74.28916 -150.37157 74.393654l-0.3842125 -74.29897z" fill-rule="evenodd"/><path fill="#b4a7d6" d="m573.26715 34.966473l-41.888855 1.0089073l-56.378845 252.15646l41.888916 -1.0089111z" fill-rule="evenodd"/><path fill="#b4a7d6" d="m694.8514 34.966473l-41.888916 1.0089073l-56.378784 252.15646l41.888916 -1.0089111z" fill-rule="evenodd"/><path fill="#b4a7d6" d="m686.2774 178.13318l-5.760803 -33.22618l-161.3573 0.060821533l5.760803 33.22618z" fill-rule="evenodd"/><path fill="#b4a7d6" d="m768.5494 35.01455l-41.888916 1.0089073l-56.378784 252.15645l41.888855 -1.0089111z" fill-rule="evenodd"/><path fill="#b4a7d6" d="m890.1336 35.01455l-41.888916 1.0089073l-56.378845 252.15645l41.888916 -1.0089111z" fill-rule="evenodd"/><path fill="#b4a7d6" d="m831.931 288.0798l-5.760803 -33.225983l-147.27856 0.06062317l5.760803 33.225967z" fill-rule="evenodd"/><path fill="#8e7cc3" d="m956.5297 35.01291l-41.888916 1.0089073l-56.378784 252.15643l41.888916 -1.0088806z" fill-rule="evenodd"/><path fill="#b4a7d6" d="m1112.6388 34.24368l-41.888916 1.0089073l-56.378784 252.15643l41.888916 -1.0089111z" fill-rule="evenodd"/><path fill="#b4a7d6" d="m1234.223 34.24368l-41.888916 1.0089073l-56.378784 252.15643l41.888916 -1.0089111z" fill-rule="evenodd"/><path fill="#b4a7d6" d="m1225.649 177.41039l-5.760742 -33.22618l-161.3573 0.060821533l5.760742 33.22618z" fill-rule="evenodd"/><path fill="#8e7cc3" d="m950.3525 35.32368c33.457947 0.47260666 61.55768 17.134666 72.69647 43.10622c11.138794 25.97155 3.42688 56.84633 -19.951355 79.87579c-23.378235 23.029465 -58.456543 34.306473 -90.75067 29.174637z" fill-rule="evenodd"/><path fill="#8e7cc3" d="m924.42926 135.03708l0 0c36.534668 -0.7983246 69.07709 15.3694 83.73242 41.59996c14.655273 26.230576 8.833801 57.888824 -14.978882 81.457504c-23.812683 23.568665 -61.40863 34.882965 -96.73529 29.111969z" fill-rule="evenodd"/><path fill="#8e7cc3" d="m1304.3494 35.08442l0 0c90.1344 0 163.23254 33.211655 163.3385 74.21183c0.10595703 41.000168 -72.82007 74.28995 -162.95422 74.38638l-0.38427734 -74.299z" fill-rule="evenodd"/><path fill="#b4a7d6" d="m1535.0253 38.319584l-41.888916 1.0089073l-56.378784 252.15643l41.888916 -1.0088806z" fill-rule="evenodd"/><path fill="#b4a7d6" d="m1630.0419 178.15616l-5.7663574 -33.25865l-146.13916 0.030303955l5.7662354 33.258636z" fill-rule="evenodd"/><path fill="#b4a7d6" d="m1639.176 40.354958l-41.889282 1.0088272l-55.906006 249.98329l41.889282 -1.0088196z" fill-rule="evenodd"/><path fill="#b4a7d6" d="m1486.6636 70.819954l6.184204 -33.230877l147.70557 -0.060459137l-6.184082 33.23088z" fill-rule="evenodd"/><path fill="#b4a7d6" d="m1649.1636 290.97174l0 -249.79529l151.90552 249.79529z" fill-rule="evenodd"/><path fill="#8e7cc3" d="m1649.0447 36.773052l0 0c83.1864 0 150.65161 32.638073 150.75574 72.93216c0.10424805 40.294098 -67.191895 73.013916 -150.37817 73.11485l-0.37756348 -73.02339z" fill-rule="evenodd"/><path fill="#8e7cc3" d="m1304.8682 38.220802l46.48816 0l0 249.79529l-46.48816 0z" fill-rule="evenodd"/><path fill="#b4a7d6" d="m1969.7687 37.866467l-41.888916 1.0089035l-56.378784 252.15646l41.888916 -1.0089111z" fill-rule="evenodd"/><path fill="#b4a7d6" d="m2085.1582 37.866467l-41.888794 1.0089035l-56.378784 252.15646l41.888916 -1.0089111z" fill-rule="evenodd"/><path fill="#b4a7d6" d="m2082.779 181.03317l-5.7609863 -33.22618l-161.35718 0.060821533l5.760742 33.22618z" fill-rule="evenodd"/><path fill="#b4a7d6" d="m2166.2637 41.496693l-41.888184 1.0090561l-55.466064 248.18779l41.888184 -1.0090637z" fill-rule="evenodd"/><path fill="#b4a7d6" d="m2261.2805 181.33304l-5.7661133 -33.25865l-146.1394 0.030303955l5.7663574 33.25865z" fill-rule="evenodd"/><path fill="#b4a7d6" d="m2270.4153 43.530815l-41.88867 1.0089455l-55.18213 246.83356l41.88867 -1.0089417z" fill-rule="evenodd"/><path fill="#b4a7d6" d="m2118.2253 71.36222l5.748291 -33.23071l147.29102 -0.060626984l-5.748047 33.230713z" fill-rule="evenodd"/><path fill="#b4a7d6" d="m2283.3809 290.9875l0 -247.2126l151.90552 247.2126z" fill-rule="evenodd"/><path fill="#8e7cc3" d="m2283.2593 37.77438l0 0c83.1853 0 150.6499 33.20722 150.75586 74.20453c0.10595703 40.99733 -67.18677 74.28917 -150.37158 74.39365l-0.38427734 -74.298965z" fill-rule="evenodd"/><path fill="#8e7cc3" d="m383.27762 182.95766l0 0c-73.061584 -10.626038 -125.02219 -51.91606 -116.11801 -92.27209c8.904205 -40.35603 75.308624 -64.52878 148.39597 -54.019585l-15.947266 73.17356z" fill-rule="evenodd"/><path fill="#8e7cc3" d="m353.9485 145.46608l0 0c74.160034 8.862717 128.4943 47.73326 121.41937 86.86301c-7.074951 39.129745 -72.88544 63.731186 -147.06497 54.976242l12.637726 -70.941605z" fill-rule="evenodd"/><path fill="#b4a7d6" d="m1906.8649 39.017532l-41.888916 1.0089073l-56.378784 252.15645l41.888916 -1.0089111z" fill-rule="evenodd"/><path fill="#000000" fill-opacity="0.0" d="m233.25722 18.103886l996.22046 0" fill-rule="evenodd"/><path stroke="#8e7cc3" stroke-width="4.0" stroke-linejoin="round" stroke-linecap="butt" d="m233.25722 18.103886l996.22046 0" fill-rule="evenodd"/><path fill="#000000" fill-opacity="0.0" d="m1436.7585 306.55017l996.22046 0" fill-rule="evenodd"/><path stroke="#8e7cc3" stroke-width="4.0" stroke-linejoin="round" stroke-linecap="butt" d="m1436.7585 306.55017l996.22046 0" fill-rule="evenodd"/></g></svg>